HIERARCHY
ROOT Hips
{
    OFFSET 0.000000 0.000000 0.000000
    CHANNELS 6 Xposition Yposition Zposition Zrotation Yrotation Xrotation
    JOINT Chest
    {
        OFFSET 0.000000 1.634758 -0.000000
        CHANNELS 3 Zrotation Yrotation Xrotation
        JOINT Chest2
        {
            OFFSET 0.000000 2.197341 0.000000
            CHANNELS 3 Zrotation Yrotation Xrotation
            JOINT Neck
            {
                OFFSET 0.000000 0.961544 0.000000
                CHANNELS 3 Zrotation Yrotation Xrotation
                JOINT Head
                {
                    OFFSET 0.000000 0.632542 -0.032565
                    CHANNELS 3 Zrotation Yrotation Xrotation
                    End Site
                    {
                        OFFSET -0.000001 0.439502 2.922845
                    }
                }
            }
            JOINT LeftCollar
            {
                OFFSET 0.167536 0.778237 -0.168280
                CHANNELS 3 Zrotation Yrotation Xrotation
                JOINT LeftShoulder
                {
                    OFFSET 0.831514 -0.002900 0.006458
                    CHANNELS 3 Zrotation Yrotation Xrotation
                    JOINT LeftElbow
                    {
                        OFFSET 2.272872 -0.026639 0.059314
                        CHANNELS 3 Zrotation Yrotation Xrotation
                        JOINT LeftWrist
                        {
                            OFFSET 2.081982 -0.024402 0.054333
                            CHANNELS 3 Zrotation Yrotation Xrotation
                            JOINT LeftHandThumb1
                            {
                                OFFSET 0.218903 -0.128645 0.283837
                                CHANNELS 3 Zrotation Yrotation Xrotation
                                JOINT LeftHandThumb2
                                {
                                    OFFSET 0.137157 -0.025101 0.077902
                                    CHANNELS 3 Zrotation Yrotation Xrotation
                                    JOINT LeftHandThumb3
                                    {
                                        OFFSET 0.171738 -0.062778 -0.010216
                                        CHANNELS 3 Zrotation Yrotation Xrotation
                                        End Site
                                        {
                                            OFFSET 0.106437 -0.057744 -0.239109
                                        }
                                    }
                                }
                            }
                            JOINT LeftHandFore1
                            {
                                OFFSET 0.767340 -0.016076 0.196678
                                CHANNELS 3 Zrotation Yrotation Xrotation
                                JOINT LeftHandFore2
                                {
                                    OFFSET -0.030961 -0.214541 0.002943
                                    CHANNELS 3 Zrotation Yrotation Xrotation
                                    JOINT LeftHandFore3
                                    {
                                        OFFSET -0.128408 0.015295 -0.006351
                                        CHANNELS 3 Zrotation Yrotation Xrotation
                                        End Site
                                        {
                                            OFFSET -0.008791 0.190691 0.030437
                                        }
                                    }
                                }
                            }
                            JOINT LeftHandMiddle1
                            {
                                OFFSET 0.709887 -0.008320 0.018526
                                CHANNELS 3 Zrotation Yrotation Xrotation
                                JOINT LeftHandMiddle2
                                {
                                    OFFSET 0.003459 -0.245031 0.003407
                                    CHANNELS 3 Zrotation Yrotation Xrotation
                                    JOINT LeftHandMiddle3
                                    {
                                        OFFSET -0.144500 -0.022312 -0.002292
                                        CHANNELS 3 Zrotation Yrotation Xrotation
                                        End Site
                                        {
                                            OFFSET -0.058831 0.218922 0.065136
                                        }
                                    }
                                }
                            }
                            JOINT LeftHandRing1
                            {
                                OFFSET 0.743817 -0.005823 -0.153668
                                CHANNELS 3 Zrotation Yrotation Xrotation
                                JOINT LeftHandRing2
                                {
                                    OFFSET 0.007856 -0.350346 -0.043926
                                    CHANNELS 3 Zrotation Yrotation Xrotation
                                    JOINT LeftHandRing3
                                    {
                                        OFFSET -0.132442 -0.013304 -0.029794
                                        CHANNELS 3 Zrotation Yrotation Xrotation
                                        End Site
                                        {
                                            OFFSET -0.031150 0.109617 0.037862
                                        }
                                    }
                                }
                            }
                            JOINT LeftHandLittle1
                            {
                                OFFSET 0.689408 -0.053302 -0.308304
                                CHANNELS 3 Zrotation Yrotation Xrotation
                                JOINT LeftHandLittle2
                                {
                                    OFFSET 0.004535 -0.191730 -0.035685
                                    CHANNELS 3 Zrotation Yrotation Xrotation
                                    JOINT LeftHandLittle3
                                    {
                                        OFFSET -0.109984 -0.005228 -0.048708
                                        CHANNELS 3 Zrotation Yrotation Xrotation
                                        End Site
                                        {
                                            OFFSET -0.026624 0.188405 -0.009133
                                        }
                                    }
                                }
                            }
                        }
                    }
                }
            }
            JOINT RightCollar
            {
                OFFSET -0.167536 0.778237 -0.168280
                CHANNELS 3 Zrotation Yrotation Xrotation
                JOINT RightShoulder
                {
                    OFFSET -0.831514 -0.002900 0.006457
                    CHANNELS 3 Zrotation Yrotation Xrotation
                    JOINT RightElbow
                    {
                        OFFSET -2.272872 -0.026639 0.059313
                        CHANNELS 3 Zrotation Yrotation Xrotation
                        JOINT RightWrist
                        {
                            OFFSET -2.081982 -0.024402 0.054331
                            CHANNELS 3 Zrotation Yrotation Xrotation
                            JOINT RightHandThumb1
                            {
                                OFFSET -0.218911 -0.128571 0.283837
                                CHANNELS 3 Zrotation Yrotation Xrotation
                                JOINT RightHandThumb2
                                {
                                    OFFSET -0.137157 -0.025101 0.077902
                                    CHANNELS 3 Zrotation Yrotation Xrotation
                                    JOINT RightHandThumb3
                                    {
                                        OFFSET -0.145887 -0.108798 0.020477
                                        CHANNELS 3 Zrotation Yrotation Xrotation
                                        End Site
                                        {
                                            OFFSET -0.003348 -0.241194 -0.116837
                                        }
                                    }
                                }
                            }
                            JOINT RightHandFore1
                            {
                                OFFSET -0.767344 -0.015991 0.196679
                                CHANNELS 3 Zrotation Yrotation Xrotation
                                JOINT RightHandFore2
                                {
                                    OFFSET 0.030913 -0.214552 0.002935
                                    CHANNELS 3 Zrotation Yrotation Xrotation
                                    JOINT RightHandFore3
                                    {
                                        OFFSET 0.127121 0.015429 0.019083
                                        CHANNELS 3 Zrotation Yrotation Xrotation
                                        End Site
                                        {
                                            OFFSET 0.011956 0.190292 -0.031824
                                        }
                                    }
                                }
                            }
                            JOINT RightHandMiddle1
                            {
                                OFFSET -0.709887 -0.008302 0.018525
                                CHANNELS 3 Zrotation Yrotation Xrotation
                                JOINT RightHandMiddle2
                                {
                                    OFFSET -0.003436 -0.245028 0.003417
                                    CHANNELS 3 Zrotation Yrotation Xrotation
                                    JOINT RightHandMiddle3
                                    {
                                        OFFSET 0.139284 -0.021651 0.038932
                                        CHANNELS 3 Zrotation Yrotation Xrotation
                                        End Site
                                        {
                                            OFFSET 0.074069 0.217033 -0.055141
                                        }
                                    }
                                }
                            }
                            JOINT RightHandRing1
                            {
                                OFFSET -0.743819 -0.005785 -0.153669
                                CHANNELS 3 Zrotation Yrotation Xrotation
                                JOINT RightHandRing2
                                {
                                    OFFSET -0.007882 -0.350346 -0.043924
                                    CHANNELS 3 Zrotation Yrotation Xrotation
                                    JOINT RightHandRing3
                                    {
                                        OFFSET 0.134322 -0.018858 0.014384
                                        CHANNELS 3 Zrotation Yrotation Xrotation
                                        End Site
                                        {
                                            OFFSET 0.029013 0.115912 -0.011945
                                        }
                                    }
                                }
                            }
                            JOINT RightHandLittle1
                            {
                                OFFSET -0.689403 -0.053298 -0.308303
                                CHANNELS 3 Zrotation Yrotation Xrotation
                                JOINT RightHandLittle2
                                {
                                    OFFSET -0.004541 -0.191732 -0.035685
                                    CHANNELS 3 Zrotation Yrotation Xrotation
                                    JOINT RightHandLittle3
                                    {
                                        OFFSET 0.118603 -0.016766 0.012163
                                        CHANNELS 3 Zrotation Yrotation Xrotation
                                        End Site
                                        {
                                            OFFSET 0.037612 0.173685 0.068611
                                        }
                                    }
                                }
                            }
                        }
                    }
                }
            }
        }
    }
    JOINT LeftHip
    {
        OFFSET 0.685143 0.673822 -0.044491
        CHANNELS 3 Zrotation Yrotation Xrotation
        JOINT LeftKnee
        {
            OFFSET 0.085364 -3.750208 0.017676
            CHANNELS 3 Zrotation Yrotation Xrotation
            JOINT LeftAnkle
            {
                OFFSET 0.094583 -4.155206 0.019585
                CHANNELS 3 Zrotation Yrotation Xrotation
                JOINT LeftToe
                {
                    OFFSET -0.000000 -0.395925 0.621478
                    CHANNELS 3 Zrotation Yrotation Xrotation
                    End Site
                    {
                        OFFSET -0.000000 -0.077878 0.321152
                    }
                }
            }
        }
    }
    JOINT RightHip
    {
        OFFSET -0.685143 0.673822 -0.044492
        CHANNELS 3 Zrotation Yrotation Xrotation
        JOINT RightKnee
        {
            OFFSET -0.085364 -3.750208 0.017677
            CHANNELS 3 Zrotation Yrotation Xrotation
            JOINT RightAnkle
            {
                OFFSET -0.094583 -4.155206 0.019585
                CHANNELS 3 Zrotation Yrotation Xrotation
                JOINT RightToe
                {
                    OFFSET -0.000000 -0.395925 0.621478
                    CHANNELS 3 Zrotation Yrotation Xrotation
                    End Site
                    {
                        OFFSET -0.000000 -0.077878 0.321152
                    }
                }
            }
        }
    }
}
MOTION
Frames: 4
Frame Time: 0.033333
-0.589497 7.902547 -0.665555 167.390915 -0.603702 178.022095 -7.933914 -0.151861 -2.279161 -0.001510 0.023576 -3.645252 0.000002 -0.023626 4.684101 0.000004 -0.000008 11.067124 -13.757612 4.515269 0.021504 -55.700710 14.705694 -3.591218 -0.000003 0.000002 0.000000 46.329411 -8.922307 7.937532 -0.000001 0.000002 0.000003 -0.000008 -0.000003 0.000002 0.000005 -0.000001 0.000000 0.000003 0.000000 0.000001 0.000005 -0.000001 0.000001 0.000001 0.000000 -0.000002 0.000001 -0.000000 0.000000 -0.000001 -0.000001 0.000000 0.000003 -0.000000 0.000004 0.000001 -0.000000 -0.000001 0.000003 0.000001 0.000001 0.000004 0.000001 0.000003 0.000001 -0.000000 0.000003 -0.000002 -0.000000 -0.000001 0.000005 -0.000002 -0.000001 14.639691 -4.052744 0.008084 60.659718 -12.997428 -3.802871 -0.000001 0.000000 -0.000001 -36.306828 4.740240 6.976141 -0.000007 -0.000008 0.000002 0.000003 0.000001 0.000004 0.000003 0.000001 -0.000002 0.000003 -0.000001 -0.000000 -0.000002 -0.000001 -0.000001 -0.000001 -0.000001 0.000002 -0.000001 0.000002 -0.000000 0.000004 -0.000003 -0.000001 -0.000004 -0.000000 -0.000000 0.000006 0.000001 0.000000 -0.000008 -0.000000 -0.000000 0.000004 0.000001 -0.000002 0.000004 -0.000000 -0.000003 -0.000004 -0.000000 0.000003 0.000008 -0.000000 0.000003 9.408539 -0.448406 -11.193301 0.129759 0.567086 25.774612 -3.727390 -8.337655 -20.996353 0.000002 0.000002 0.000000 -39.096569 -11.331153 -13.845974 -0.142661 -0.593114 27.051250 1.789718 7.911005 -13.670908 -0.000001 -0.000006 0.000005
-0.590859 7.902639 -0.665624 167.390915 -0.603702 178.022095 -7.933378 -0.151699 -2.273032 -0.000943 0.023509 -3.639036 0.021361 -0.024224 4.680565 0.000073 -0.001335 11.060358 -13.746657 4.512546 0.021469 -55.710819 14.708986 -3.593821 0.000002 0.000003 0.000000 46.336815 -8.956756 7.973687 0.000006 -0.000003 -0.000005 0.000007 0.000000 0.000010 -0.000009 0.000037 0.000011 0.000063 0.000002 0.000000 -0.000026 -0.000003 0.000000 0.000084 -0.000029 -0.000007 0.000009 0.000007 0.000001 0.000002 -0.000001 0.000002 0.000044 -0.000006 -0.000005 0.000018 0.000002 0.000003 0.000020 -0.000001 -0.000009 0.000001 -0.000000 -0.000005 -0.000024 0.000002 -0.000003 -0.000019 0.000003 0.000001 -0.000035 -0.000000 0.000016 14.634133 -4.049824 0.008106 60.596092 -12.985403 -3.784720 0.000003 -0.000002 0.000000 -36.341461 4.737491 6.972474 -0.000007 0.000006 -0.000011 0.000004 -0.000000 -0.000003 0.000015 -0.000011 0.000012 -0.000063 -0.000008 -0.000003 0.000054 0.000002 -0.000006 -0.000090 -0.000036 0.000016 -0.000004 -0.000005 -0.000001 -0.000003 -0.000004 -0.000001 -0.000056 -0.000018 0.000013 -0.000005 0.000000 0.000005 -0.000018 0.000005 0.000002 0.000003 0.000003 0.000000 0.000012 0.000002 0.000002 0.000023 -0.000003 0.000006 0.000037 -0.000012 -0.000006 9.398856 -0.459943 -11.213301 0.130092 0.567773 25.808159 -3.724176 -8.324048 -21.015266 0.000001 -0.000005 -0.000005 -39.106125 -11.328534 -13.829803 -0.142357 -0.592512 27.021570 1.796233 7.911718 -13.660619 0.000001 -0.000001 0.000009
-0.594788 7.902912 -0.665828 167.390915 -0.603702 178.022095 -7.932082 -0.151315 -2.255009 0.000388 0.023352 -3.620696 0.082856 -0.025946 4.670113 0.000266 -0.005056 11.040423 -13.715516 4.504649 0.021366 -55.867809 16.668840 -3.612820 0.001450 -4.088516 -0.047984 46.357716 -9.053226 8.076755 -0.000014 -0.000009 0.000009 0.000006 -0.000001 0.000003 -0.000016 0.000033 0.000012 0.000062 -0.000007 0.000000 -0.000026 -0.000003 0.000001 0.000086 -0.000029 -0.000012 0.000015 -0.000005 0.000000 -0.000004 -0.000001 0.000002 0.000045 -0.000005 -0.000002 0.000022 -0.000007 -0.000003 0.000022 -0.000001 -0.000006 0.000000 -0.000002 -0.000001 -0.000008 -0.000007 -0.000007 -0.000022 0.000003 0.000003 -0.000034 0.000001 0.000015 14.618730 -4.041459 0.008140 60.416950 -12.950727 -3.733392 -0.000002 0.000001 0.000000 -36.438416 4.729781 6.962224 0.000013 -0.000002 0.000004 0.000003 0.000001 -0.000004 0.000016 -0.000010 0.000014 -0.000042 -0.000004 -0.000006 0.000059 -0.000001 -0.000008 -0.000089 -0.000033 0.000018 0.000005 -0.000003 -0.000006 -0.000003 -0.000000 -0.000001 -0.000047 -0.000015 0.000015 -0.000008 0.000000 -0.000005 -0.000020 0.000003 0.000003 -0.000001 0.000003 -0.000001 0.000016 0.000001 -0.000010 0.000025 -0.000003 0.000001 0.000039 -0.000011 -0.000005 9.370903 -0.493748 -11.270918 0.131049 0.569747 25.904545 -3.715083 -8.284247 -21.069660 0.000004 0.000009 0.000007 -39.133759 -11.320992 -13.783314 -0.141476 -0.590783 26.936331 1.815038 7.913798 -13.631314 -0.000000 0.000002 -0.000001
-0.601052 7.903355 -0.666165 167.390915 -0.603702 178.022095 -7.930522 -0.150854 -2.225601 0.001999 0.023165 -3.590774 0.180600 -0.028659 4.653027 0.000557 -0.010746 11.007832 -13.666970 4.492076 0.021238 -56.133942 19.950512 -3.654976 0.011713 -10.939050 -0.129707 46.390236 -9.201379 8.238613 -0.000022 -0.000002 0.000009 0.000003 0.000000 0.000007 -0.000013 0.000036 0.000012 0.000047 -0.000005 -0.000003 -0.000028 -0.000002 -0.000001 0.000084 -0.000031 -0.000009 -0.000005 -0.000006 -0.000000 -0.000001 -0.000001 -0.000002 0.000042 -0.000005 -0.000002 -0.000003 -0.000004 -0.000002 0.000019 -0.000003 -0.000008 0.000002 0.000002 -0.000001 -0.000032 -0.000002 -0.000009 -0.000019 0.000004 0.000003 -0.000038 -0.000001 0.000015 14.595245 -4.028249 0.008181 60.140160 -12.895511 -3.653725 0.000000 -0.000000 0.000000 -36.587307 4.717903 6.946500 -0.000017 -0.000001 -0.000004 0.000005 0.000001 -0.000001 0.000016 -0.000011 0.000008 -0.000053 -0.000003 -0.000001 0.000056 0.000003 -0.000006 -0.000093 -0.000036 0.000018 -0.000021 -0.000005 0.000001 0.000000 -0.000002 0.000000 -0.000048 -0.000018 0.000011 -0.000011 0.000000 0.000005 -0.000019 0.000005 0.000002 0.000000 -0.000001 0.000001 0.000008 0.000003 0.000006 0.000030 -0.000002 0.000002 0.000036 -0.000012 -0.000003 9.326327 -0.548636 -11.362587 0.132571 0.572875 26.057417 -3.701030 -8.219757 -21.155991 -0.000001 -0.000004 -0.000001 -39.177895 -11.308985 -13.709550 -0.140089 -0.588041 26.801264 1.845044 7.917139 -13.585401 -0.000001 0.000002 0.000006
